<mxfile host="app.diagrams.net" modified="2024-06-08T08:12:50.493Z" agent="Mozilla/5.0 (Windows NT 10.0; Win64; x64) AppleWebKit/537.36 (KHTML, like Gecko) Chrome/125.0.0.0 Safari/537.36 Edg/125.0.0.0" version="24.4.13" etag="_sTC5AxPW4zQrb5zYkk3" type="github">
  <diagram name="第 1 页" id="qINVsAhM6T01jaRWhCeJ">
    <mxGraphModel>
      <root>
        <mxCell id="0" />
        <mxCell id="1" parent="0" />
      </root>
    </mxGraphModel>
  </diagram>
</mxfile>
